<svg width="167" height="32" viewBox="0 0 167 32" fill="none" xmlns="http://www.w3.org/2000/svg">
<path d="M17 16H2V14H3C9.62742 14 15 8.62742 15 2V1H17V16Z" fill="#A5C8F2"/>
<path d="M32 18.1318C25.3156 19.0224 20.0235 24.3156 19.1328 31H17V16H32V18.1318Z" fill="#83DFDF"/>
<path d="M49.89 21.04C49.9967 21.04 50.09 21.0833 50.17 21.17L50.94 22C50.3533 22.68 49.64 23.21 48.8 23.59C47.9667 23.97 46.9567 24.16 45.77 24.16C44.7433 24.16 43.81 23.9833 42.97 23.63C42.13 23.27 41.4133 22.77 40.82 22.13C40.2267 21.4833 39.7667 20.71 39.44 19.81C39.1133 18.91 38.95 17.92 38.95 16.84C38.95 15.76 39.12 14.77 39.46 13.87C39.8 12.97 40.2767 12.1967 40.89 11.55C41.51 10.9033 42.25 10.4033 43.11 10.05C43.97 9.69 44.92 9.51 45.96 9.51C46.98 9.51 47.88 9.67333 48.66 10C49.44 10.3267 50.1267 10.77 50.72 11.33L50.08 12.22C50.04 12.2867 49.9867 12.3433 49.92 12.39C49.86 12.43 49.7767 12.45 49.67 12.45C49.55 12.45 49.4033 12.3867 49.23 12.26C49.0567 12.1267 48.83 11.98 48.55 11.82C48.27 11.66 47.92 11.5167 47.5 11.39C47.08 11.2567 46.5633 11.19 45.95 11.19C45.21 11.19 44.5333 11.32 43.92 11.58C43.3067 11.8333 42.7767 12.2033 42.33 12.69C41.89 13.1767 41.5467 13.77 41.3 14.47C41.0533 15.17 40.93 15.96 40.93 16.84C40.93 17.7333 41.0567 18.53 41.31 19.23C41.57 19.93 41.92 20.5233 42.36 21.01C42.8067 21.49 43.33 21.8567 43.93 22.11C44.5367 22.3633 45.19 22.49 45.89 22.49C46.3167 22.49 46.7 22.4667 47.04 22.42C47.3867 22.3667 47.7033 22.2867 47.99 22.18C48.2833 22.0733 48.5533 21.94 48.8 21.78C49.0533 21.6133 49.3033 21.4167 49.55 21.19C49.6633 21.09 49.7767 21.04 49.89 21.04ZM54.6094 9.27V24H52.8294V9.27H54.6094ZM59.3759 13.87V24H57.5959V13.87H59.3759ZM59.7559 10.69C59.7559 10.8633 59.7193 11.0267 59.6459 11.18C59.5793 11.3267 59.4859 11.46 59.3659 11.58C59.2526 11.6933 59.1159 11.7833 58.9559 11.85C58.8026 11.9167 58.6393 11.95 58.4659 11.95C58.2926 11.95 58.1293 11.9167 57.9759 11.85C57.8293 11.7833 57.6993 11.6933 57.5859 11.58C57.4726 11.46 57.3826 11.3267 57.3159 11.18C57.2493 11.0267 57.2159 10.8633 57.2159 10.69C57.2159 10.5167 57.2493 10.3533 57.3159 10.2C57.3826 10.04 57.4726 9.90333 57.5859 9.79C57.6993 9.67 57.8293 9.57667 57.9759 9.51C58.1293 9.44333 58.2926 9.41 58.4659 9.41C58.6393 9.41 58.8026 9.44333 58.9559 9.51C59.1159 9.57667 59.2526 9.67 59.3659 9.79C59.4859 9.90333 59.5793 10.04 59.6459 10.2C59.7193 10.3533 59.7559 10.5167 59.7559 10.69ZM63.9806 15.34C64.2006 15.0933 64.434 14.87 64.6806 14.67C64.9273 14.47 65.1873 14.3 65.4606 14.16C65.7406 14.0133 66.034 13.9033 66.3406 13.83C66.654 13.75 66.9906 13.71 67.3506 13.71C67.904 13.71 68.3906 13.8033 68.8106 13.99C69.2373 14.17 69.5906 14.43 69.8706 14.77C70.1573 15.1033 70.374 15.5067 70.5206 15.98C70.6673 16.4533 70.7406 16.9767 70.7406 17.55V24H68.9506V17.55C68.9506 16.7833 68.774 16.19 68.4206 15.77C68.074 15.3433 67.544 15.13 66.8306 15.13C66.304 15.13 65.8106 15.2567 65.3506 15.51C64.8973 15.7633 64.4773 16.1067 64.0906 16.54V24H62.3006V13.87H63.3706C63.624 13.87 63.7806 13.9933 63.8406 14.24L63.9806 15.34ZM75.333 13.87V24H73.553V13.87H75.333ZM75.713 10.69C75.713 10.8633 75.6763 11.0267 75.603 11.18C75.5363 11.3267 75.443 11.46 75.323 11.58C75.2096 11.6933 75.073 11.7833 74.913 11.85C74.7596 11.9167 74.5963 11.95 74.423 11.95C74.2496 11.95 74.0863 11.9167 73.933 11.85C73.7863 11.7833 73.6563 11.6933 73.543 11.58C73.4296 11.46 73.3396 11.3267 73.273 11.18C73.2063 11.0267 73.173 10.8633 73.173 10.69C73.173 10.5167 73.2063 10.3533 73.273 10.2C73.3396 10.04 73.4296 9.90333 73.543 9.79C73.6563 9.67 73.7863 9.57667 73.933 9.51C74.0863 9.44333 74.2496 9.41 74.423 9.41C74.5963 9.41 74.7596 9.44333 74.913 9.51C75.073 9.57667 75.2096 9.67 75.323 9.79C75.443 9.90333 75.5363 10.04 75.603 10.2C75.6763 10.3533 75.713 10.5167 75.713 10.69ZM86.9377 13.87L82.8077 24H81.2077L77.0777 13.87H78.5277C78.6743 13.87 78.7943 13.9067 78.8877 13.98C78.981 14.0533 79.0443 14.14 79.0777 14.24L81.6477 20.76C81.7277 21.0067 81.7977 21.2467 81.8577 21.48C81.9177 21.7133 81.9743 21.9467 82.0277 22.18C82.081 21.9467 82.1377 21.7133 82.1977 21.48C82.2577 21.2467 82.331 21.0067 82.4177 20.76L85.0177 14.24C85.0577 14.1333 85.1243 14.0467 85.2177 13.98C85.311 13.9067 85.421 13.87 85.5477 13.87H86.9377ZM93.8453 19.44C93.0253 19.4667 92.3253 19.5333 91.7453 19.64C91.172 19.74 90.702 19.8733 90.3353 20.04C89.9753 20.2067 89.712 20.4033 89.5453 20.63C89.3853 20.8567 89.3053 21.11 89.3053 21.39C89.3053 21.6567 89.3486 21.8867 89.4353 22.08C89.522 22.2733 89.6386 22.4333 89.7853 22.56C89.9386 22.68 90.1153 22.77 90.3153 22.83C90.522 22.8833 90.742 22.91 90.9753 22.91C91.2886 22.91 91.5753 22.88 91.8353 22.82C92.0953 22.7533 92.3386 22.66 92.5653 22.54C92.7986 22.42 93.0186 22.2767 93.2253 22.11C93.4386 21.9433 93.6453 21.7533 93.8453 21.54V19.44ZM88.0953 15.3C88.6553 14.76 89.2586 14.3567 89.9053 14.09C90.552 13.8233 91.2686 13.69 92.0553 13.69C92.622 13.69 93.1253 13.7833 93.5653 13.97C94.0053 14.1567 94.3753 14.4167 94.6753 14.75C94.9753 15.0833 95.202 15.4867 95.3553 15.96C95.5086 16.4333 95.5853 16.9533 95.5853 17.52V24H94.7953C94.622 24 94.4886 23.9733 94.3953 23.92C94.302 23.86 94.2286 23.7467 94.1753 23.58L93.9753 22.62C93.7086 22.8667 93.4486 23.0867 93.1953 23.28C92.942 23.4667 92.6753 23.6267 92.3953 23.76C92.1153 23.8867 91.8153 23.9833 91.4953 24.05C91.182 24.1233 90.832 24.16 90.4453 24.16C90.052 24.16 89.682 24.1067 89.3353 24C88.9886 23.8867 88.6853 23.72 88.4253 23.5C88.172 23.28 87.9686 23.0033 87.8153 22.67C87.6686 22.33 87.5953 21.93 87.5953 21.47C87.5953 21.07 87.7053 20.6867 87.9253 20.32C88.1453 19.9467 88.502 19.6167 88.9953 19.33C89.4886 19.0433 90.132 18.81 90.9253 18.63C91.7186 18.4433 92.692 18.3367 93.8453 18.31V17.52C93.8453 16.7333 93.6753 16.14 93.3353 15.74C92.9953 15.3333 92.4986 15.13 91.8453 15.13C91.4053 15.13 91.0353 15.1867 90.7353 15.3C90.442 15.4067 90.1853 15.53 89.9653 15.67C89.752 15.8033 89.5653 15.9267 89.4053 16.04C89.252 16.1467 89.0986 16.2 88.9453 16.2C88.8253 16.2 88.722 16.17 88.6353 16.11C88.5486 16.0433 88.4753 15.9633 88.4153 15.87L88.0953 15.3ZM111.164 11.91C111.104 12.01 111.037 12.0867 110.964 12.14C110.897 12.1867 110.814 12.21 110.714 12.21C110.601 12.21 110.467 12.1533 110.314 12.04C110.161 11.9267 109.967 11.8033 109.734 11.67C109.507 11.53 109.231 11.4033 108.904 11.29C108.584 11.1767 108.194 11.12 107.734 11.12C107.301 11.12 106.917 11.18 106.584 11.3C106.257 11.4133 105.981 11.57 105.754 11.77C105.534 11.97 105.367 12.2067 105.254 12.48C105.141 12.7467 105.084 13.0367 105.084 13.35C105.084 13.75 105.181 14.0833 105.374 14.35C105.574 14.61 105.834 14.8333 106.154 15.02C106.481 15.2067 106.847 15.37 107.254 15.51C107.667 15.6433 108.087 15.7833 108.514 15.93C108.947 16.0767 109.367 16.2433 109.774 16.43C110.187 16.61 110.554 16.84 110.874 17.12C111.201 17.4 111.461 17.7433 111.654 18.15C111.854 18.5567 111.954 19.0567 111.954 19.65C111.954 20.2767 111.847 20.8667 111.634 21.42C111.421 21.9667 111.107 22.4433 110.694 22.85C110.287 23.2567 109.784 23.5767 109.184 23.81C108.591 24.0433 107.914 24.16 107.154 24.16C106.221 24.16 105.374 23.9933 104.614 23.66C103.854 23.32 103.204 22.8633 102.664 22.29L103.224 21.37C103.277 21.2967 103.341 21.2367 103.414 21.19C103.494 21.1367 103.581 21.11 103.674 21.11C103.761 21.11 103.857 21.1467 103.964 21.22C104.077 21.2867 104.204 21.3733 104.344 21.48C104.484 21.5867 104.644 21.7033 104.824 21.83C105.004 21.9567 105.207 22.0733 105.434 22.18C105.667 22.2867 105.931 22.3767 106.224 22.45C106.517 22.5167 106.847 22.55 107.214 22.55C107.674 22.55 108.084 22.4867 108.444 22.36C108.804 22.2333 109.107 22.0567 109.354 21.83C109.607 21.5967 109.801 21.32 109.934 21C110.067 20.68 110.134 20.3233 110.134 19.93C110.134 19.4967 110.034 19.1433 109.834 18.87C109.641 18.59 109.384 18.3567 109.064 18.17C108.744 17.9833 108.377 17.8267 107.964 17.7C107.551 17.5667 107.131 17.4333 106.704 17.3C106.277 17.16 105.857 17 105.444 16.82C105.031 16.64 104.664 16.4067 104.344 16.12C104.024 15.8333 103.764 15.4767 103.564 15.05C103.371 14.6167 103.274 14.0833 103.274 13.45C103.274 12.9433 103.371 12.4533 103.564 11.98C103.764 11.5067 104.051 11.0867 104.424 10.72C104.804 10.3533 105.267 10.06 105.814 9.84C106.367 9.62 107.001 9.51 107.714 9.51C108.514 9.51 109.241 9.63667 109.894 9.89C110.554 10.1433 111.134 10.51 111.634 10.99L111.164 11.91ZM119.78 18.29V24H117.84V18.29L112.59 9.67H114.29C114.464 9.67 114.6 9.71333 114.7 9.8C114.8 9.88 114.887 9.98667 114.96 10.12L118.24 15.69C118.36 15.9233 118.47 16.1433 118.57 16.35C118.67 16.55 118.757 16.7533 118.83 16.96C118.904 16.7533 118.987 16.55 119.08 16.35C119.174 16.1433 119.277 15.9233 119.39 15.69L122.66 10.12C122.72 10.0067 122.804 9.90333 122.91 9.81C123.017 9.71667 123.154 9.67 123.32 9.67H125.03L119.78 18.29ZM133.762 11.91C133.702 12.01 133.635 12.0867 133.562 12.14C133.495 12.1867 133.412 12.21 133.312 12.21C133.198 12.21 133.065 12.1533 132.912 12.04C132.758 11.9267 132.565 11.8033 132.332 11.67C132.105 11.53 131.828 11.4033 131.502 11.29C131.182 11.1767 130.792 11.12 130.332 11.12C129.898 11.12 129.515 11.18 129.182 11.3C128.855 11.4133 128.578 11.57 128.352 11.77C128.132 11.97 127.965 12.2067 127.852 12.48C127.738 12.7467 127.682 13.0367 127.682 13.35C127.682 13.75 127.778 14.0833 127.972 14.35C128.172 14.61 128.432 14.8333 128.752 15.02C129.078 15.2067 129.445 15.37 129.852 15.51C130.265 15.6433 130.685 15.7833 131.112 15.93C131.545 16.0767 131.965 16.2433 132.372 16.43C132.785 16.61 133.152 16.84 133.472 17.12C133.798 17.4 134.058 17.7433 134.252 18.15C134.452 18.5567 134.552 19.0567 134.552 19.65C134.552 20.2767 134.445 20.8667 134.232 21.42C134.018 21.9667 133.705 22.4433 133.292 22.85C132.885 23.2567 132.382 23.5767 131.782 23.81C131.188 24.0433 130.512 24.16 129.752 24.16C128.818 24.16 127.972 23.9933 127.212 23.66C126.452 23.32 125.802 22.8633 125.262 22.29L125.822 21.37C125.875 21.2967 125.938 21.2367 126.012 21.19C126.092 21.1367 126.178 21.11 126.272 21.11C126.358 21.11 126.455 21.1467 126.562 21.22C126.675 21.2867 126.802 21.3733 126.942 21.48C127.082 21.5867 127.242 21.7033 127.422 21.83C127.602 21.9567 127.805 22.0733 128.032 22.18C128.265 22.2867 128.528 22.3767 128.822 22.45C129.115 22.5167 129.445 22.55 129.812 22.55C130.272 22.55 130.682 22.4867 131.042 22.36C131.402 22.2333 131.705 22.0567 131.952 21.83C132.205 21.5967 132.398 21.32 132.532 21C132.665 20.68 132.732 20.3233 132.732 19.93C132.732 19.4967 132.632 19.1433 132.432 18.87C132.238 18.59 131.982 18.3567 131.662 18.17C131.342 17.9833 130.975 17.8267 130.562 17.7C130.148 17.5667 129.728 17.4333 129.302 17.3C128.875 17.16 128.455 17 128.042 16.82C127.628 16.64 127.262 16.4067 126.942 16.12C126.622 15.8333 126.362 15.4767 126.162 15.05C125.968 14.6167 125.872 14.0833 125.872 13.45C125.872 12.9433 125.968 12.4533 126.162 11.98C126.362 11.5067 126.648 11.0867 127.022 10.72C127.402 10.3533 127.865 10.06 128.412 9.84C128.965 9.62 129.598 9.51 130.312 9.51C131.112 9.51 131.838 9.63667 132.492 9.89C133.152 10.1433 133.732 10.51 134.232 10.99L133.762 11.91Z" fill="#2A2B2A"/>
</svg>
